<svg width="24" height="24" viewBox="0 0 24 24" fill="none" xmlns="http://www.w3.org/2000/svg">
<path d="M20.7435 1.77612H19.6833L19.3803 2.88686C19.1279 3.89662 18.1434 4.65395 17.1336 4.65395C16.5782 4.65395 16.0481 4.42675 15.7452 3.9976C15.417 3.56845 15.316 2.98784 15.4675 2.43247L15.6442 1.77612H12.2363L11.9333 2.88686C11.6557 3.89662 10.6964 4.65395 9.66137 4.65395C9.106 4.65395 8.60112 4.42675 8.27295 3.9976C7.94477 3.56845 7.8438 2.98784 7.99526 2.43247L8.17197 1.77612H7.06123C5.36988 1.77612 3.67853 3.08881 3.24938 4.78017L0.119113 16.3167C-0.133327 17.2255 0.0181372 18.1343 0.548263 18.7906C1.05314 19.447 1.83571 19.8256 2.71925 19.8256H4.25914V20.5072C4.25914 22.2995 5.7233 23.7637 7.51562 23.7637H20.7435C22.5358 23.7637 24 22.2995 24 20.5072V5.03261C24 3.24028 22.5358 1.77612 20.7435 1.77612ZM2.7445 17.8566C2.54254 17.8566 2.2901 17.8061 2.13864 17.6042C1.98717 17.4274 1.96193 17.1498 2.06291 16.8468L4.6378 7.2036H20.3396L17.8909 16.3419C17.6637 17.175 16.7802 17.8818 15.9724 17.8818H2.7445V17.8566ZM22.031 20.5072C22.031 21.2141 21.4503 21.7947 20.7435 21.7947H7.54087C6.83403 21.7947 6.25342 21.2141 6.25342 20.5072V19.8256H15.9724C17.6637 19.8256 19.3551 18.5129 19.7842 16.8216L22.031 8.4658V20.5072Z" fill="#223A60"/>
<path d="M9.6614 3.74513C10.2673 3.74513 10.8731 3.26549 11.0246 2.65964L11.378 1.3217C11.5295 0.715843 11.176 0.236206 10.5954 0.236206C9.98957 0.236206 9.38371 0.715843 9.23225 1.3217L8.87883 2.65964C8.72737 3.24025 9.08078 3.74513 9.6614 3.74513Z" fill="#223A60"/>
<path d="M17.1358 3.74513C17.7416 3.74513 18.3475 3.26549 18.4989 2.65964L18.8524 1.3217C19.0038 0.715843 18.6504 0.236206 18.0698 0.236206C17.4639 0.236206 16.8581 0.715843 16.7066 1.3217L16.328 2.65964C16.1765 3.24025 16.5299 3.74513 17.1358 3.74513Z" fill="#223A60"/>
<path d="M12.0611 13.1359H9.71338C9.56191 13.1359 9.3852 13.2621 9.33471 13.4135L8.88032 15.1301C8.82983 15.2816 8.93081 15.4078 9.08227 15.4078H11.43C11.5814 15.4078 11.7581 15.2816 11.8086 15.1301L12.263 13.4135C12.3135 13.2621 12.2125 13.1359 12.0611 13.1359Z" fill="#223A60"/>
<path d="M7.92045 13.1359H5.57275C5.42129 13.1359 5.24458 13.2621 5.19409 13.4135L4.7397 15.1301C4.68921 15.2816 4.79018 15.4078 4.94165 15.4078H7.28935C7.44081 15.4078 7.61752 15.2816 7.66801 15.1301L8.1224 13.4135C8.17289 13.2621 8.09716 13.1359 7.92045 13.1359Z" fill="#223A60"/>
<path d="M16.1978 13.1359H13.8501C13.6986 13.1359 13.5219 13.2621 13.4714 13.4135L13.017 15.1301C12.9666 15.2816 13.0675 15.4078 13.219 15.4078H15.5667C15.7182 15.4078 15.8949 15.2816 15.9454 15.1301L16.3997 13.4135C16.4502 13.2621 16.3493 13.1359 16.1978 13.1359Z" fill="#223A60"/>
<path d="M13.0181 9.526H10.6704C10.5189 9.526 10.3422 9.65222 10.2917 9.80369L9.83735 11.5203C9.78686 11.6717 9.88784 11.798 10.0393 11.798H12.387C12.5385 11.798 12.7152 11.6717 12.7657 11.5203L13.2201 9.80369C13.2705 9.65222 13.1948 9.526 13.0181 9.526Z" fill="#223A60"/>
<path d="M8.90482 9.526H6.55712C6.40566 9.526 6.22895 9.65222 6.17846 9.80369L5.72407 11.5203C5.67358 11.6717 5.77456 11.798 5.92602 11.798H8.27372C8.42519 11.798 8.60189 11.6717 8.65238 11.5203L9.10678 9.80369C9.15726 9.65222 9.05629 9.526 8.90482 9.526Z" fill="#223A60"/>
<path d="M14.2056 11.8232H16.5533C16.7048 11.8232 16.8815 11.697 16.9319 11.5456L17.3863 9.82895C17.4368 9.67749 17.3359 9.55127 17.1844 9.55127H14.8367C14.6852 9.55127 14.5085 9.67749 14.458 9.82895L14.0036 11.5456C13.9531 11.6718 14.0289 11.8232 14.2056 11.8232Z" fill="#223A60"/>
</svg>
