<svg width="1920" height="438" viewBox="0 0 1920 438" fill="none" xmlns="http://www.w3.org/2000/svg">
<path d="M0 437C37.8495 364 157.555 224.1 333.582 248.5C553.616 279 586.757 478 964.89 284.5C1343.02 91.0001 1329.44 363.5 1592.39 354.5C1802.76 347.3 1898.45 115.833 1920 1" stroke="url(#paint0_radial_542_12873)" stroke-width="3" stroke-dasharray="14 14"/>
<path d="M463.268 306.386C460.745 305.63 458.359 304.478 456.197 302.978C455.598 302.553 455.457 301.722 455.884 301.126C456.308 300.527 457.137 300.388 457.736 300.812C459.622 302.12 461.701 303.13 463.895 303.806C463.258 301.098 459.329 298.129 455.443 296.727C453.429 296.001 451.423 295.318 449.423 294.67L449.425 294.668C448.574 295.286 447.575 295.657 446.529 295.743C446.92 298.353 446.349 301.017 444.921 303.238L443.72 305.117C443.665 305.2 443.61 305.282 443.551 305.36C446.341 306.213 449.174 307.01 452.049 307.748C456.227 308.82 461.404 308.504 463.268 306.386Z" fill="#223A60"/>
<path d="M440.82 303.255L442.018 301.379C443.062 299.746 443.436 297.774 443.061 295.87L442.143 291.207L445.417 292.215C446.597 292.576 447.85 291.916 448.213 290.734C448.574 289.554 447.912 288.303 446.732 287.938L441.166 286.227L440.024 280.409L442.558 281.187L442.556 281.19C443.738 281.553 444.988 280.891 445.352 279.709C445.713 278.529 445.053 277.276 443.873 276.915L439.042 275.429L437.63 268.251C437.48 267.483 436.921 266.862 436.172 266.632L433.06 265.673L433.063 265.675C432.737 265.574 432.382 265.636 432.113 265.84C431.839 266.045 431.682 266.368 431.69 266.71L432.093 286.997C432.107 287.96 432.01 288.921 431.802 289.86C427.99 288.997 424.196 288.241 420.424 287.596L418.774 280.348C418.646 279.795 418.237 279.349 417.69 279.181L415.032 278.363L415.035 278.366C414.876 278.317 414.706 278.344 414.571 278.438C414.438 278.534 414.354 278.689 414.348 278.853L414.059 286.586L413.793 286.734C412.953 286.279 411.959 286.221 411.071 286.57C410.183 286.919 409.495 287.639 409.186 288.543C408.752 289.991 409.429 291.541 410.784 292.208C416.812 295.178 423.061 297.97 429.564 300.493C429.57 300.495 429.575 300.5 429.582 300.503C432.684 301.707 435.813 302.831 438.963 303.905C439.655 304.142 440.423 303.874 440.82 303.255Z" fill="#223A60"/>
<path d="M440.638 308.644L427.74 303.48L413.75 319.411L413.747 319.413C413.524 319.666 413.436 320.016 413.513 320.348C413.59 320.676 413.82 320.952 414.135 321.082L417.134 322.345L417.137 322.348C417.858 322.645 418.686 322.529 419.294 322.041L424.982 317.437L429.641 319.392C430.779 319.87 432.09 319.332 432.568 318.194C433.045 317.056 432.509 315.747 431.371 315.269L428.929 314.243L433.533 310.515L438.903 312.771L438.905 312.769C439.452 313.001 440.068 313.005 440.618 312.78C441.167 312.556 441.605 312.122 441.836 311.575C442.066 311.026 442.07 310.41 441.845 309.86C441.621 309.311 441.187 308.874 440.638 308.644Z" fill="#223A60"/>
<defs>
<radialGradient id="paint0_radial_542_12873" cx="0" cy="0" r="1" gradientUnits="userSpaceOnUse" gradientTransform="translate(960 219) rotate(90) scale(218 960)">
<stop offset="0.035" stop-color="#223A60"/>
<stop offset="0.765" stop-color="#223A60"/>
<stop offset="1" stop-color="white"/>
</radialGradient>
</defs>
</svg>
