<svg width="30" height="30" viewBox="0 0 30 30" fill="none" xmlns="http://www.w3.org/2000/svg">
<rect width="30" height="30" rx="15" fill="#223A60"/>
<path d="M23 15C23 15.2945 22.7612 15.5333 22.4667 15.5333H15.5333V22.4667C15.5333 22.7612 15.2945 23 15 23C14.7055 23 14.4667 22.7612 14.4667 22.4667V15.5333H7.53333C7.2388 15.5333 7 15.2945 7 15C7 14.7055 7.2388 14.4667 7.53333 14.4667H14.4667V7.53333C14.4667 7.2388 14.7055 7 15 7C15.2945 7 15.5333 7.2388 15.5333 7.53333V14.4667H22.4667C22.7612 14.4667 23 14.7055 23 15Z" fill="white"/>
</svg>
