<svg width="14" height="12" viewBox="0 0 14 12" fill="none" xmlns="http://www.w3.org/2000/svg">
<path d="M13.9984 1.7308C13.9816 1.3835 13.8163 1.06979 13.5685 0.838699C13.3206 0.60761 12.9901 0.491404 12.6428 0.524983C12.2955 0.541766 11.9818 0.707026 11.7668 0.954905L5.15672 8.39127L2.13375 5.64725C1.88587 5.41616 1.55537 5.29996 1.20807 5.31675C0.860776 5.33353 0.54706 5.482 0.332099 5.72988C0.10101 5.97776 -0.0151954 6.30826 0.00159426 6.65556C0.0183773 7.00285 0.166847 7.31657 0.414726 7.53153L4.39764 11.1502C4.62873 11.3652 4.94311 11.4807 5.25683 11.4807H5.33945C5.66996 11.464 5.98367 11.3155 6.23155 11.0508L13.7008 2.63979C13.8996 2.39191 14.0152 2.0613 13.9984 1.7308Z" fill="white"/>
</svg>
