<svg width="40" height="39" viewBox="0 0 40 39" fill="none" xmlns="http://www.w3.org/2000/svg">
<path fill-rule="evenodd" clip-rule="evenodd" d="M26.1134 22.2407L16.2656 37.953C16.2656 38.0636 16.1549 38.0636 16.0443 38.0636H12.1715C11.9502 38.0636 11.8396 37.953 11.8396 37.7317L16.7082 22.2407H6.30705L3.43015 26.1134C3.43015 26.2241 3.3195 26.2241 3.20885 26.2241H0.33195C0.11065 26.2241 0 26.1134 0 25.8921L1.9917 19.0318L0 12.1715C0 12.0609 0.11065 11.8396 0.33195 11.8396H3.20885C3.3195 11.8396 3.43015 11.8396 3.43015 11.9502L6.30705 15.823H16.7082L11.8396 0.33195C11.8396 0.2213 11.9502 0 12.1715 0H16.0443C16.1549 0 16.2656 0 16.2656 0.11065L26.1134 15.823H36.8465C41.0512 15.823 41.0512 22.2407 36.8465 22.2407H26.1134Z" fill="#C8C8C8"/>
</svg>
